<?xml version="1.0" standalone="no"?><!DOCTYPE svg PUBLIC "-//W3C//DTD SVG 20010904//EN" "http://www.w3.org/TR/2001/REC-SVG-20010904/DTD/svg10.dtd"><svg version="1.0" xmlns="http://www.w3.org/2000/svg" width="700.000000pt" height="700.000000pt" viewBox="0 0 700 700" preserveAspectRatio="xMidYMid meet"><g fill="#000000" stroke="none"><path d="M1782 6468 c-5 -7 -18 -31 -29 -53 -10 -23 -390 -684 -843 -1470
-453 -786 -824 -1437 -824 -1445 0 -8 369 -657 821 -1440 452 -784 834 -1450
850 -1480 27 -52 30 -55 66 -54 20 0 792 1 1715 2 l1677 2 854 1480 c513 891
851 1487 849 1498 -4 13 -1633 2850 -1695 2950 -9 15 -23 22 -43 22 -25 0 -35
-8 -58 -43 -15 -24 -385 -661 -822 -1415 -437 -754 -797 -1371 -800 -1371 -3
0 -371 631 -819 1404 -448 772 -819 1409 -824 1414 -15 15 -62 14 -75 -1z" transform="matrix(.1 0 0 -.1 0 700)"/></g></svg>